<?xml version="1.0" encoding="UTF-8" standalone="no"?>
<!-- Created with Inkscape (http://www.inkscape.org/) -->

<svg
   width="210mm"
   height="297mm"
   viewBox="0 0 210 297"
   version="1.1"
   id="svg5"
   inkscape:version="1.2.1 (9c6d41e410, 2022-07-14)"
   sodipodi:docname="infinity_symbol.svg"
   xmlns:inkscape="http://www.inkscape.org/namespaces/inkscape"
   xmlns:sodipodi="http://sodipodi.sourceforge.net/DTD/sodipodi-0.dtd"
   xmlns="http://www.w3.org/2000/svg"
   xmlns:svg="http://www.w3.org/2000/svg">
  <sodipodi:namedview
     id="namedview7"
     pagecolor="#505050"
     bordercolor="#eeeeee"
     borderopacity="1"
     inkscape:showpageshadow="0"
     inkscape:pageopacity="0"
     inkscape:pagecheckerboard="0"
     inkscape:deskcolor="#505050"
     inkscape:document-units="px"
     showgrid="false"
     showborder="false"
     inkscape:zoom="0.5"
     inkscape:cx="-468"
     inkscape:cy="-1074"
     inkscape:window-width="2560"
     inkscape:window-height="1490"
     inkscape:window-x="-12"
     inkscape:window-y="-12"
     inkscape:window-maximized="1"
     inkscape:current-layer="layer1" />
  <defs
     id="defs2" />
  <g
     inkscape:label="Layer 1"
     inkscape:groupmode="layer"
     id="layer1">
    <g
       id="path16374"
       style="opacity:1"
       transform="rotate(1.4247901,3122.1628,-8056.0108)">
      <path
         style="color:#000000;fill:#d40000;stroke-width:19.8438;stroke-linecap:round;stroke-linejoin:round;stroke-miterlimit:9.6;-inkscape-stroke:none"
         d="m -15.957031,-295.05273 c -14.891093,-0.17994 -29.850264,5.29711 -41.320313,16.47656 -22.940094,22.3589 -23.387867,59.22596 -0.996093,82.13281 22.39178,22.90685 59.2903716,23.35303 82.230468,0.99414 10.446092,-10.18144 37.828125,-36.87109 37.828125,-36.87109 l 3.794922,-3.69727 -3.703125,-3.79101 c 0,0 -26.72751,-27.34259 -36.923828,-37.77344 -11.195887,-11.45343 -26.0190633,-17.29077 -40.910156,-17.4707 z m -0.126953,10.51953 c 12.1640917,0.14697 24.2720098,4.94131 33.46875,14.34961 9.173344,9.38435 28.785519,29.44916 33.21875,33.98437 -4.541741,4.42667 -24.635101,24.01188 -34.033204,33.17188 -18.8442851,18.36685 -48.881905,18.00213 -67.27539,-0.81446 -18.39348,-18.81658 -18.029831,-48.78743 0.814453,-67.15429 9.422144,-9.18343 21.642549,-13.68409 33.806641,-13.53711 z"
         id="path22920" />
      <path
         style="color:#000000;fill:#ff0000;stroke-linecap:round;stroke-linejoin:round;stroke-miterlimit:9.6;-inkscape-stroke:none"
         d="m -15.837891,-304.97461 c -17.40371,-0.2103 -34.967294,6.23447 -48.365234,19.29297 -26.797796,26.11887 -27.323818,69.41432 -1.166016,96.17383 26.155392,26.75703 69.4563463,27.28078 96.251953,1.16406 10.445848,-10.1812 37.823309,-36.86635 37.826172,-36.86914 l 0.002,-0.002 3.792969,-3.69532 a 9.9228672,9.9228672 0 0 0 0.173828,-14.04101 l -3.703125,-3.79102 a 9.9228672,9.9228672 0 0 0 -0.002,-0.002 c 0,0 -26.727453,-27.34253 -36.923828,-37.77344 -13.077999,-13.37884 -30.4828228,-20.24674 -47.886719,-20.45703 z m -0.365234,30.36328 c 9.637122,0.11644 19.160552,3.86299 26.492188,11.36328 7.255085,7.42197 18.632433,19.06175 26.273437,26.87891 -7.828205,7.63011 -19.484952,18.99163 -26.9179687,26.23633 -15.0232593,14.64263 -38.5900733,14.35661 -53.2539063,-0.64453 -14.666404,-15.00377 -14.38194,-38.46751 0.644531,-53.11328 7.511682,-7.32138 17.124744,-10.83715 26.761719,-10.72071 z"
         id="path22922" />
    </g>
    <g
       id="path16376"
       style="opacity:1"
       transform="rotate(1.4247901,3122.1628,-8056.0108)">
      <path
         style="color:#000000;fill:#d40000;stroke-width:19.8438;stroke-linecap:round;stroke-linejoin:round;stroke-miterlimit:9.6"
         d="m 132.14258,-295.05273 c -14.8911,0.17993 -29.71427,6.01727 -40.910158,17.4707 -10.196319,10.43085 -36.923828,37.77344 -36.923828,37.77344 l -3.705078,3.79101 3.794921,3.69727 c 0,0 27.383987,26.68966 37.830079,36.87109 22.940104,22.35889 59.836734,21.91271 82.228514,-0.99414 22.39178,-22.90685 21.94597,-59.77391 -0.99414,-82.13281 -11.47004,-11.17945 -26.42922,-16.6565 -41.32031,-16.47656 z m 0.12695,10.51953 c 12.16409,-0.14698 24.38451,4.35368 33.80664,13.53711 18.8443,18.36686 19.20794,48.33771 0.81445,67.15429 -18.39348,18.81659 -48.43109,19.18131 -67.275386,0.81446 -9.39813,-9.16003 -29.493512,-28.7453 -34.035156,-33.17188 4.432317,-4.53428 24.047094,-24.59975 33.220703,-33.98437 9.196739,-9.4083 21.304659,-14.20264 33.468749,-14.34961 z"
         id="path22914" />
      <path
         style="color:#000000;fill:#ff0000;stroke-linecap:round;stroke-linejoin:round;stroke-miterlimit:9.6"
         d="m 132.02344,-304.97461 c -17.4039,0.21029 -34.808723,7.0782 -47.886721,20.45703 -10.196377,10.43091 -36.923828,37.77344 -36.923828,37.77344 l -3.705079,3.79102 a 9.9228672,9.9228672 0 0 0 0.171875,14.04296 l 3.794922,3.69727 c 0.0029,0.003 27.382712,26.68837 37.828125,36.86914 26.795416,26.11652 70.094816,25.59277 96.249996,-1.16406 26.15761,-26.7593 25.63396,-70.05477 -1.16406,-96.17383 -13.39793,-13.0585 -30.96152,-19.50327 -48.36523,-19.29297 z m 0.36523,30.36328 c 9.63697,-0.11644 19.25006,3.39934 26.76172,10.72071 15.02648,14.64577 15.31095,38.1095 0.64453,53.11328 -14.66383,15.00114 -38.23063,15.28716 -53.2539,0.64453 -7.433493,-7.24516 -19.09163,-18.60663 -26.919926,-26.23633 7.640852,-7.81649 19.019651,-19.45627 26.275386,-26.87891 7.33164,-7.50029 16.85507,-11.24684 26.49219,-11.36328 z"
         id="path22916" />
    </g>
    <rect
       style="opacity:0.987277;fill:#000000;fill-opacity:0;stroke-width:0.264999;stroke-linecap:square;stroke-miterlimit:9.6"
       id="rect1521"
       width="53.974998"
       height="53.974998"
       x="-26.987499"
       y="23.283333" />
    <rect
       style="opacity:0.987277;fill:#000000;fill-opacity:0;stroke-width:0.264999;stroke-linecap:square;stroke-miterlimit:9.6"
       id="rect1523"
       width="35.983334"
       height="35.983334"
       x="-17.991667"
       y="23.283333" />
    <rect
       style="opacity:0.987277;fill:#ff7920;fill-opacity:0;stroke-width:0.264999;stroke-linecap:square;stroke-miterlimit:9.6"
       id="rect2303"
       width="138.64166"
       height="138.64166"
       x="-75.935417"
       y="-20.108334" />
    <rect
       style="opacity:0.987277;fill:#2e369e;fill-opacity:0;stroke-width:0.264999;stroke-linecap:square;stroke-miterlimit:9.6"
       id="rect2567"
       width="255.05833"
       height="255.05833"
       x="-162.45416"
       y="-164.57083" />
    <rect
       style="opacity:0.987277;fill:#ffaaaa;fill-opacity:0;stroke-width:0.264999;stroke-linecap:square;stroke-miterlimit:9.6"
       id="rect3071"
       width="75.40625"
       height="57.679165"
       x="-40.393738"
       y="-131.19043"
       transform="rotate(46.063276)" />
    <path
       id="path8119"
       style="color:#000000;opacity:1;fill:#ffffff;stroke-linecap:round;stroke-miterlimit:9.6"
       d="m -209.35619,-375.51564 c -14.42621,-0.19053 -28.94407,4.92827 -40.32152,15.47871 -23.48893,21.78157 -24.85348,58.6263 -3.03822,82.0828 21.81526,23.45652 58.69156,24.82015 82.18049,3.03859 9.65173,-8.95017 30.40174,-28.19296 34.9516,-32.41232 4.33492,4.44051 24.10377,24.69099 33.29858,34.10987 22.377027,22.92236 59.273447,23.39363 82.227857,1.05064 22.9544201,-22.34297 23.4253201,-59.20993 1.04828,-82.1323 -11.18852,-11.46118 -26.00708,-17.30845 -40.89802,-17.49883 -14.89096,-0.19039 -29.85421,5.27666 -41.331407,16.44816 -9.38136,9.13146 -29.35067,28.56873 -33.97282,33.06782 -4.39301,-4.72355 -23.37063,-25.12937 -32.28636,-34.71585 -10.90763,-11.72826 -25.58111,-17.93245 -40.46311,-18.48259 -0.46506,-0.0176 -0.93,-0.0281 -1.39535,-0.0347 z m -0.13293,10.5192 c 0.38013,0.005 0.76024,0.0149 1.14014,0.0289 12.15667,0.44938 24.14166,5.54321 33.10161,15.17727 8.93716,9.60953 28.04427,30.15591 32.36336,34.79995 -4.6504,4.31238 -25.2244,23.39167 -34.84734,32.31514 -19.29513,17.8926 -49.31453,16.78115 -67.23444,-2.48695 -17.9199,-19.26809 -16.81119,-49.22042 2.48394,-67.11303 9.34608,-8.66673 21.20826,-12.87527 32.99273,-12.72125 z m 150.587657,3.74547 c 11.77756,0.43203 23.41586,5.22508 32.3195,14.34573 18.3817801,18.82972 18.0000601,48.80014 -0.8556,67.15354 -18.85563,18.35339 -48.89316,17.97109 -67.27493,-0.85863 -9.167477,-9.39084 -28.769627,-29.4695 -33.199797,-34.00763 4.54368,-4.42268 24.65134,-23.99435 34.055457,-33.14796 9.42782,-9.17671 21.65123,-13.66842 33.81521,-13.51289 0.38012,0.004 0.76023,0.0139 1.14016,0.0278 z" />
    <path
       style="opacity:0.526316;fill:#000000;fill-opacity:1;stroke:none;stroke-width:0.264583;stroke-linecap:round;stroke-linejoin:miter;stroke-miterlimit:9.6;stroke-dasharray:none"
       d="m -156.93457,-315.52871 20.98802,22.03514 -8.71184,8.11325 -20.95225,-21.99641 z"
       id="path48597"
       sodipodi:nodetypes="ccccc" />
    <path
       style="opacity:0.526316;fill:#000000;fill-opacity:1;stroke:none;stroke-width:0.264583;stroke-linecap:round;stroke-linejoin:miter;stroke-miterlimit:9.6;stroke-dasharray:none"
       d="m -134.7967,-336.47499 21.22829,21.74987 9.37684,-9.31585 -21.19086,-21.71284 z"
       id="path50777"
       sodipodi:nodetypes="ccccc" />
    <circle
       id="path53746"
       style="fill:#000000;stroke:#000000;stroke-width:0.264583"
       cx="-325.91843"
       cy="-126.26663"
       r="0.0015575017"
       transform="rotate(46.063276)" />
    <path
       style="opacity:1;fill:#ff0000;fill-opacity:1;stroke:none;stroke-width:0.264583;stroke-linecap:round;stroke-linejoin:miter;stroke-miterlimit:9.6;stroke-dasharray:none"
       d="m -135.21253,-322.28139 7.30025,7.66341 7.40735,-7.2119 -7.39007,-7.57604 z"
       id="path53758" />
    <path
       style="opacity:1;fill:#ff0000;fill-opacity:1;stroke:none;stroke-width:0.264583;stroke-linecap:round;stroke-linejoin:miter;stroke-miterlimit:9.6;stroke-dasharray:none"
       d="m -135.58509,-307.32644 -7.34177,-7.70837 -7.17106,6.65691 7.31474,7.7335 z"
       id="path54099" />
  </g>
</svg>
